<svg xmlns="http://www.w3.org/2000/svg" viewBox="0 0 100 100" width="100%" height="100%">
  <path fill="#ffffff" fill-rule="evenodd" d="M 7.46 16.58 L 7.00 17.55 L 7.00 72.36 L 7.23 73.10 L 7.70 73.75 L 8.07 74.08 L 8.72 74.41 L 9.56 74.59 L 41.26 74.59 L 41.40 74.73 L 41.31 76.08 L 40.94 77.80 L 40.38 79.29 L 39.68 80.36 L 37.82 82.12 L 37.17 82.82 L 36.89 83.33 L 36.89 83.56 L 37.12 83.94 L 37.59 84.21 L 38.52 84.40 L 61.99 84.40 L 62.92 84.26 L 63.34 84.07 L 63.62 83.80 L 63.62 83.56 L 63.34 82.96 L 63.06 82.59 L 60.55 80.17 L 59.90 79.05 L 59.53 78.03 L 59.20 76.59 L 59.02 75.24 L 59.02 74.73 L 59.16 74.59 L 90.44 74.59 L 91.51 74.31 L 92.30 73.71 L 92.72 73.06 L 92.95 72.08 L 92.95 17.97 L 92.86 17.37 L 92.54 16.67 L 91.74 15.93 L 91.37 15.74 L 90.58 15.55 L 9.42 15.55 L 8.58 15.74 L 8.21 15.93 Z M 49.81 68.73 L 50.37 68.78 L 50.88 69.01 L 51.44 69.62 L 51.63 70.18 L 51.58 70.92 L 51.26 71.52 L 50.84 71.90 L 50.23 72.13 L 49.49 72.08 L 48.88 71.76 L 48.51 71.29 L 48.28 70.64 L 48.33 69.99 L 48.56 69.48 L 49.02 69.01 Z M 10.58 19.18 L 10.77 18.99 L 89.23 19.04 L 89.33 19.13 L 89.33 63.20 L 89.19 63.34 L 10.72 63.34 L 10.58 63.16 Z M 49.54 27.31 L 47.26 27.55 L 45.86 27.92 L 44.28 28.48 L 43.17 29.03 L 42.05 29.73 L 40.80 30.66 L 39.82 31.59 L 38.38 33.31 L 37.45 34.80 L 36.89 35.96 L 36.70 36.61 L 36.52 36.94 L 36.05 38.66 L 35.82 40.19 L 35.78 41.49 L 35.82 42.66 L 36.19 44.89 L 36.57 46.14 L 37.08 47.44 L 37.82 48.79 L 38.56 49.91 L 39.31 50.84 L 40.66 52.18 L 42.66 53.63 L 44.47 54.56 L 46.65 55.30 L 47.35 55.44 L 50.23 55.67 L 52.23 55.49 L 53.21 55.30 L 55.86 54.37 L 58.04 53.11 L 59.25 52.18 L 60.65 50.79 L 61.39 49.86 L 62.46 48.19 L 63.39 46.05 L 63.95 43.86 L 64.09 42.75 L 64.13 41.17 L 63.76 38.29 L 63.02 36.01 L 62.41 34.75 L 61.71 33.59 L 60.65 32.20 L 59.11 30.66 L 57.86 29.73 L 56.74 29.03 L 55.53 28.43 L 53.90 27.87 L 53.67 27.87 L 52.65 27.55 L 51.16 27.36 Z M 39.26 34.15 L 40.01 33.17 L 41.17 31.96 L 42.56 30.85 L 43.77 30.10 L 45.03 29.50 L 45.96 29.17 L 48.61 28.57 L 51.30 28.57 L 52.00 28.76 L 52.56 28.80 L 54.93 29.50 L 56.14 30.10 L 57.34 30.85 L 58.37 31.64 L 59.44 32.66 L 60.83 34.43 L 61.95 36.52 L 62.69 38.98 L 62.92 41.12 L 62.88 42.93 L 62.69 44.05 L 62.32 45.49 L 61.58 47.30 L 60.60 48.88 L 60.46 48.74 L 60.23 47.91 L 59.72 46.70 L 59.06 45.68 L 58.23 44.84 L 57.25 44.28 L 55.90 44.00 L 53.90 43.86 L 53.67 44.24 L 53.21 44.65 L 51.95 45.21 L 50.84 45.40 L 49.07 45.40 L 47.95 45.21 L 47.02 44.84 L 46.56 44.56 L 46.23 44.24 L 46.05 43.86 L 43.17 44.14 L 42.66 44.28 L 41.68 44.84 L 40.98 45.49 L 40.28 46.51 L 39.68 47.86 L 39.49 48.65 L 39.35 48.88 L 38.94 48.33 L 37.96 46.47 L 37.45 44.93 L 37.03 42.79 L 37.03 40.05 L 37.26 38.70 L 37.96 36.52 L 38.52 35.36 Z M 49.16 31.41 L 48.37 31.59 L 47.21 32.10 L 46.70 32.47 L 45.77 33.50 L 45.40 34.24 L 45.21 34.85 L 44.98 36.33 L 44.98 36.94 L 44.61 37.40 L 44.47 38.01 L 44.47 38.42 L 44.65 39.35 L 45.03 40.10 L 45.49 40.52 L 45.77 41.26 L 46.75 42.84 L 48.00 44.05 L 48.93 44.61 L 49.72 44.84 L 50.79 44.84 L 51.58 44.61 L 52.51 44.05 L 53.21 43.45 L 54.00 42.47 L 54.51 41.68 L 54.97 40.56 L 55.67 39.68 L 55.86 39.17 L 56.00 38.05 L 55.86 37.45 L 55.62 37.08 L 55.53 35.45 L 55.25 34.29 L 54.70 33.22 L 54.00 32.47 L 52.88 31.78 L 51.72 31.41 Z M 46.89 36.01 L 47.35 35.78 L 48.05 35.68 L 49.49 36.01 L 50.60 36.01 L 51.44 35.78 L 52.18 35.78 L 52.79 35.96 L 53.39 36.29 L 53.58 36.24 L 53.49 36.05 L 53.58 35.82 L 53.90 36.19 L 54.18 36.66 L 54.60 37.77 L 54.93 37.87 L 55.02 38.05 L 55.11 38.61 L 54.97 39.35 L 54.79 39.73 L 54.51 40.01 L 54.23 40.10 L 53.67 41.40 L 53.16 42.14 L 52.42 42.98 L 51.67 43.54 L 50.88 43.86 L 50.00 43.91 L 49.21 43.72 L 48.51 43.31 L 47.63 42.52 L 47.21 41.96 L 46.65 41.03 L 46.28 40.10 L 46.00 40.01 L 45.72 39.73 L 45.54 39.35 L 45.44 38.89 L 45.49 38.01 L 45.63 37.82 L 45.96 37.68 L 46.10 37.08 L 46.28 36.70 Z" />
</svg>
