<svg xmlns="http://www.w3.org/2000/svg" viewBox="0 0 100 100" width="100%" height="100%">
  <g transform="translate(50, 33) scale(0.92) translate(-50, -36)">
    <path fill="#ffffff" fill-rule="evenodd" d="M 59.42 49.52 L 59.42 51.50 L 62.53 51.50 L 62.53 49.52 Z M 37.57 49.52 L 37.57 58.75 L 39.64 58.75 L 39.64 49.52 Z M 30.88 68.55 L 30.88 69.02 L 32.85 69.30 L 32.95 68.36 L 33.42 67.32 L 34.55 66.19 L 36.62 65.16 L 36.72 67.70 L 38.79 67.61 L 38.89 64.78 L 46.04 62.23 L 46.80 61.01 L 47.93 60.26 L 51.89 60.16 L 53.11 60.82 L 54.05 62.23 L 61.21 64.78 L 61.31 67.70 L 63.38 67.70 L 63.47 65.16 L 65.54 66.19 L 66.67 67.32 L 67.15 68.36 L 67.24 69.30 L 69.22 69.02 L 69.03 67.61 L 68.46 66.29 L 67.52 65.16 L 66.11 64.12 L 64.22 63.27 L 61.59 62.80 L 55.84 60.73 L 55.46 60.44 L 56.12 59.60 L 56.79 58.28 L 57.35 56.39 L 57.44 53.85 L 57.07 51.97 L 55.93 49.61 L 54.80 48.29 L 53.58 47.35 L 52.45 46.79 L 51.13 46.41 L 48.96 46.41 L 47.65 46.79 L 46.51 47.35 L 44.72 48.86 L 43.31 51.21 L 42.65 53.85 L 42.75 56.39 L 43.31 58.28 L 43.97 59.60 L 44.63 60.44 L 44.25 60.73 L 38.51 62.80 L 35.87 63.27 L 33.99 64.12 L 32.57 65.16 L 31.63 66.29 L 31.26 67.04 Z M 47.45 49.14 L 49.44 48.39 L 50.66 48.39 L 52.63 49.14 L 54.24 50.74 L 54.99 52.15 L 55.46 54.23 L 55.46 55.36 L 55.18 56.77 L 54.24 58.75 L 53.96 58.94 L 52.92 58.37 L 51.69 58.09 L 48.40 58.09 L 47.17 58.37 L 46.04 58.94 L 45.29 57.81 L 44.82 56.39 L 44.63 55.26 L 44.72 53.57 L 45.10 52.15 L 45.66 51.02 Z M 57.35 45.38 L 57.44 47.35 L 62.53 47.26 L 62.53 45.38 Z M 37.57 45.38 L 37.66 47.35 L 41.71 47.35 L 41.71 45.38 Z M 60.46 41.23 L 60.55 43.21 L 62.53 43.11 L 62.53 41.23 Z M 56.41 41.14 L 56.31 43.21 L 58.29 43.21 L 58.29 41.23 Z M 52.17 41.23 L 52.17 43.21 L 54.14 43.21 L 54.14 41.23 Z M 37.57 41.23 L 37.66 43.21 L 43.78 43.21 L 43.69 41.14 Z M 45.66 3.08 L 35.68 11.65 L 35.02 12.40 L 34.55 13.63 L 34.55 14.57 L 35.02 15.79 L 35.02 19.75 L 35.78 21.26 L 33.79 24.37 L 35.40 27.66 L 35.68 27.85 L 37.38 27.00 L 36.15 24.37 L 37.38 22.48 L 37.75 22.10 L 38.41 22.10 L 38.69 22.30 L 40.11 24.46 L 38.89 27.00 L 40.76 27.76 L 42.37 24.46 L 42.37 24.17 L 40.39 21.16 L 41.05 20.13 L 41.24 19.19 L 41.14 15.23 L 47.65 9.67 L 57.35 14.57 L 57.53 14.75 L 49.53 26.62 L 48.11 27.95 L 47.65 29.17 L 47.65 30.58 L 48.11 31.81 L 52.26 36.90 L 34.55 36.99 L 16.84 41.32 L 16.84 66.47 L 34.36 60.92 L 35.40 60.92 L 35.58 38.97 L 64.60 39.06 L 64.70 53.47 L 64.50 53.66 L 59.42 53.66 L 59.42 59.78 L 64.60 59.88 L 64.70 60.92 L 65.73 60.92 L 83.26 66.47 L 83.26 41.32 L 66.67 37.18 L 64.50 36.90 L 64.50 32.85 L 62.43 30.68 L 62.43 29.73 L 62.05 28.13 L 61.31 25.97 L 60.36 23.99 L 60.36 23.61 L 65.92 15.32 L 66.11 14.67 L 66.11 13.25 L 65.54 11.84 L 64.32 10.71 L 63.76 10.43 L 62.62 10.23 L 49.62 3.64 L 48.40 2.80 L 46.61 2.70 Z M 61.40 55.83 L 61.59 55.64 L 64.50 55.64 L 64.70 55.92 L 64.50 57.81 L 61.40 57.71 Z M 66.77 39.34 L 81.18 42.93 L 81.18 63.65 L 67.43 59.41 L 66.67 59.03 Z M 69.03 55.74 L 68.66 57.62 L 78.92 60.16 L 79.39 58.28 L 79.02 58.09 L 69.22 55.64 Z M 68.84 42.08 L 68.84 53.29 L 79.11 55.83 L 79.11 44.62 Z M 70.91 44.62 L 76.94 46.12 L 77.13 46.32 L 77.03 53.19 L 70.82 51.59 Z M 33.42 39.44 L 33.42 59.03 L 32.67 59.41 L 19.11 63.65 L 18.82 63.55 L 18.91 42.93 L 33.14 39.34 Z M 26.08 42.93 L 20.98 47.91 L 20.98 51.50 L 22.97 51.50 L 22.97 48.86 L 26.26 45.66 L 28.90 47.63 L 23.72 57.15 L 26.92 58.84 L 27.30 58.84 L 31.54 57.43 L 30.88 55.45 L 27.39 56.68 L 27.11 56.68 L 26.54 56.30 L 31.54 47.07 Z M 49.81 29.07 L 50.75 28.33 L 51.69 28.41 L 55.08 31.90 L 57.25 32.09 L 57.25 34.82 L 59.32 34.82 L 59.24 32.94 L 59.42 31.90 L 60.83 32.00 L 62.53 33.69 L 62.43 36.99 L 54.99 36.99 L 49.81 30.68 L 49.62 30.21 Z M 58.95 25.78 L 60.17 28.89 L 60.36 29.64 L 60.27 29.92 L 56.12 29.83 Z M 39.17 17.02 L 39.17 19.37 L 38.79 19.94 L 38.41 20.13 L 37.75 20.13 L 37.00 19.37 L 37.09 17.20 L 38.41 17.20 Z M 63.38 12.50 L 63.85 12.97 L 64.13 13.63 L 63.94 14.75 L 54.62 28.41 L 53.49 27.19 L 52.26 26.54 L 52.17 26.25 L 61.11 13.06 L 62.05 12.31 L 63.00 12.31 Z M 44.35 7.22 L 44.63 7.78 L 45.57 8.73 L 38.03 15.23 L 37.28 15.23 L 37.00 15.04 L 36.53 14.29 L 36.72 13.53 L 43.97 7.22 Z M 46.14 5.33 L 46.80 4.77 L 47.45 4.77 L 59.89 11.08 L 59.98 11.27 L 58.86 12.88 L 58.57 12.97 L 46.51 6.84 L 46.04 6.19 Z" />
  </g>
  <text x="50" y="90.5" text-anchor="middle" font-family="system-ui, -apple-system, BlinkMacSystemFont, 'Segoe UI', Roboto, Helvetica, Arial, sans-serif" font-weight="900" font-size="11.5" fill="#ffffff" textLength="90" lengthAdjust="spacingAndGlyphs">Robot Control UI</text>
</svg>
