<svg width="100" height="100" viewBox="0 0 100 100" fill="none" xmlns="http://www.w3.org/2000/svg">
  <!-- Zahnrad oben -->
  <path d="M50 42C54.4183 42 58 38.4183 58 34C58 29.5817 54.4183 26 50 26C45.5817 26 42 29.5817 42 34C42 38.4183 45.5817 42 50 42Z" stroke="currentColor" stroke-width="4" stroke-linecap="round" stroke-linejoin="round"/>
  <path d="M50 16V22" stroke="currentColor" stroke-width="4" stroke-linecap="round" stroke-linejoin="round"/>
  <path d="M50 46V52" stroke="currentColor" stroke-width="4" stroke-linecap="round" stroke-linejoin="round"/>
  <path d="M35 25L40 30" stroke="currentColor" stroke-width="4" stroke-linecap="round" stroke-linejoin="round"/>
  <path d="M60 40L65 45" stroke="currentColor" stroke-width="4" stroke-linecap="round" stroke-linejoin="round"/>
  <path d="M32 34H38" stroke="currentColor" stroke-width="4" stroke-linecap="round" stroke-linejoin="round"/>
  <path d="M62 34H68" stroke="currentColor" stroke-width="4" stroke-linecap="round" stroke-linejoin="round"/>
  <path d="M35 43L40 38" stroke="currentColor" stroke-width="4" stroke-linecap="round" stroke-linejoin="round"/>
  <path d="M60 28L65 23" stroke="currentColor" stroke-width="4" stroke-linecap="round" stroke-linejoin="round"/>
  
  <!-- Die Hand unten -->
  <path d="M22 84C25 84 45 84 55 84C65 84 84 72 90 64C92 61 88 58 86 60C82 65 72 74 65 76L40 76C35 76 30 71 30 66C30 61 35 56 40 56C45 56 60 56 65 56" stroke="currentColor" stroke-width="5" stroke-linecap="round" stroke-linejoin="round"/>
  <path d="M22 84L18 88" stroke="currentColor" stroke-width="5" stroke-linecap="round" stroke-linejoin="round"/>
</svg>
